<svg width="177" height="55" viewBox="0 0 177 55" fill="none" xmlns="http://www.w3.org/2000/svg">
<path d="M9.91897 0.394685C5.78283 0.939455 2.07491 3.73898 0.900203 7.85376C-0.0258532 11.0976 0.426364 14.7913 0.426364 18.1374V36.5952C0.426364 41.0264 -0.428234 46.2342 2.25039 50.0813C4.10448 52.7432 6.77889 54.5824 10.0508 54.8988C12.2527 55.1124 14.5623 54.9212 16.7747 54.9212H29.9589H40.1107C41.8749 54.9212 43.7689 55.115 45.5162 54.8645C49.2774 54.3253 53.1992 51.55 54.3445 47.8018C55.4025 44.3383 55.0088 40.5716 55.0088 36.9908V18.5329C55.0088 14.1063 55.8724 8.77072 53.1235 4.95324C51.5387 2.75254 48.9755 1.05323 46.3073 0.519534C44.5144 0.160925 42.5889 0.338783 40.7699 0.338783H20.3345H13.6105C12.3947 0.338783 11.1256 0.235816 9.91897 0.394685Z" fill="#FBBC05"/>
<path d="M35.7598 44.6373C35.5528 43.9478 34.8728 43.4613 34.3788 42.9563C33.4715 42.0308 32.5811 41.0842 31.6747 40.1547C31.2445 39.7144 30.8263 38.9958 30.222 38.7862C29.7641 38.6267 29.2292 38.8389 28.7722 38.9101C28.2165 38.9972 27.618 38.9985 27.0583 38.9457C23.9662 38.6517 20.9481 37.0802 19.0179 34.6174C16.5586 31.4795 15.3751 27.4715 16.4345 23.5427C18.2871 16.6711 26.1094 12.1126 32.7051 15.76C36.209 17.6981 38.8637 21.2117 39.2966 25.2566C39.4482 26.6713 39.3334 28.2283 38.9881 29.6074C38.8176 30.2877 38.1297 31.2791 38.2573 31.9805C38.3692 32.5962 39.1643 33.1381 39.5781 33.5613C40.5159 34.5172 41.4042 35.5152 42.3519 36.4631C42.8453 36.9562 43.297 37.4849 43.934 37.7816C44.5334 36.6424 45.3132 35.5416 45.8027 34.3537C47.6073 29.9726 47.8516 25.0298 46.4105 20.5103C44.2458 13.7215 37.9096 8.37955 30.8817 7.23714C25.8231 6.41485 20.4901 7.73563 16.285 10.6C9.65849 15.114 6.49376 24.1584 8.70356 31.8487C10.0696 36.6029 13.2513 40.8522 17.439 43.4745C22.012 46.3381 27.4272 46.6769 32.5956 45.6789C33.6937 45.4679 34.6823 44.8707 35.7598 44.6373Z" fill="white"/>
<path d="M102.999 14.05V41.4731H108.8V30.5303H119.611V41.4731H125.412V14.05H119.611V24.9929H108.8V14.05H102.999Z" fill="white"/>
<path fill-rule="evenodd" clip-rule="evenodd" d="M96.6941 38.3105C97.2811 38.8206 97.8716 39.3337 98.5165 39.7596C98.0904 40.6893 97.2916 41.5332 96.5362 42.3314C96.261 42.6222 95.9915 42.9069 95.7479 43.1875C95.7049 43.237 95.66 43.2924 95.6131 43.3503C95.3433 43.6834 95.0049 44.1012 94.5613 43.9575C94.257 43.8584 93.9749 43.5981 93.721 43.3638C93.6471 43.2956 93.5755 43.2296 93.5065 43.1704L91.6608 41.5883C91.5965 41.533 91.5307 41.4727 91.4632 41.4108C91.1074 41.0845 90.7037 40.7143 90.2105 40.8052C89.6673 40.9058 89.1363 41.1192 88.6043 41.333C88.1329 41.5224 87.6606 41.7122 87.1781 41.8243C84.7892 42.3807 82.4358 42.3108 80.0587 41.7373C77.8899 41.2152 75.7843 40.0312 74.1258 38.5507C72.6017 37.19 71.4417 35.5473 70.5965 33.6949C69.8225 31.9981 69.3795 30.1537 69.3795 28.2894C69.3795 24.5979 70.3507 21.2992 72.7367 18.4013C77.1832 12.9997 85.36 11.8105 91.2652 15.3953C92.8051 16.3314 94.2541 17.5984 95.3141 19.0605C97.918 22.6558 98.9832 27.2584 97.7545 31.5855C97.4077 32.805 96.9344 34.0641 96.2673 35.1452C96.1939 35.2641 96.0847 35.4045 95.9662 35.557C95.6483 35.966 95.2631 36.4615 95.3207 36.8591C95.371 37.2104 95.7166 37.4895 95.9997 37.7182C96.0503 37.7591 96.0988 37.7983 96.1434 37.8361C96.3276 37.9921 96.5107 38.1512 96.6941 38.3105ZM83.9575 34.9202C84.582 35.4133 85.2435 35.9355 85.5959 36.596C85.4043 36.611 85.2132 36.6285 85.0224 36.646C84.2926 36.713 83.5661 36.7796 82.8273 36.7054C80.673 36.4905 78.6967 35.2011 77.3334 33.5636C73.2988 28.7211 75.623 20.7354 81.7725 19.0505C87.5657 17.4631 93.0358 23.1244 92.2236 28.8173C92.018 30.2583 91.6343 32.0488 90.4741 33.0362C89.8632 32.5029 89.2404 31.9825 88.6175 31.4621C87.6852 30.683 86.7528 29.9038 85.8596 29.081C85.3744 29.8574 84.7531 30.5578 84.1373 31.252C83.8832 31.5385 83.6299 31.824 83.3876 32.1134C83.3261 32.1868 83.2446 32.2704 83.156 32.3614C82.853 32.6723 82.4669 33.0686 82.5148 33.4318C82.5604 33.7777 82.9222 34.0738 83.2068 34.3068C83.2596 34.35 83.3097 34.391 83.3546 34.4298C83.5427 34.5927 83.748 34.7548 83.9575 34.9202Z" fill="white"/>
<path d="M129.763 21.5652V30.7941C129.763 33.0024 129.629 35.1647 130.482 37.2543C131.849 40.5978 135.792 42.9486 139.388 42.1008C141.07 41.7053 142.408 40.6928 143.606 39.4957V41.4733H149.408V21.5652H143.606V29.8712C143.606 31.3399 143.824 32.9734 143.227 34.3538C141.894 37.4323 137.887 37.6406 136.218 34.7494C135.467 33.4481 135.696 31.8409 135.696 30.3986V21.5652H129.763Z" fill="white"/>
<path fill-rule="evenodd" clip-rule="evenodd" d="M153.89 41.4731V14.05H159.691V23.0153C161.375 21.8103 163.244 20.828 165.36 20.7753C167.23 20.7305 169.138 21.1616 170.766 22.0924C172.329 22.985 173.624 24.1346 174.608 25.6521C177.01 29.3608 176.819 34.3629 174.204 37.9134C170.828 42.4962 164.089 43.6406 159.691 39.891V41.4731H153.89ZM160.921 35.1399C158.383 32.2315 159.691 27.0936 163.646 26.2485C166.104 25.7225 168.651 26.8273 169.794 29.0805C171.259 31.9704 169.708 35.9837 166.415 36.7115C164.434 37.1492 162.299 36.7194 160.921 35.1399Z" fill="white"/>
<path d="M32.5958 28.4211C31.6469 29.7646 30.1128 30.9749 28.9042 32.1008C28.5002 32.4766 27.6468 32.9618 27.5754 33.563C27.5192 34.0376 28.1266 34.5241 28.3768 34.8814C28.9998 34.706 29.3684 34.2683 29.8271 33.8293C30.0658 33.5999 30.3778 33.2255 30.75 33.269C31.1993 33.3217 31.6104 33.8939 31.8963 34.1998C32.1399 34.4608 32.3163 34.6915 32.4639 35.0132C31.8875 35.2822 31.4647 35.7344 31.0214 36.1879C30.8199 36.3936 30.5021 36.6533 30.5854 36.9803C30.6955 37.4128 31.2825 37.8135 31.541 38.1774C32.2803 37.8333 32.815 37.1662 33.3868 36.5953C34.114 35.8689 34.9009 35.2123 35.6281 34.4859C36.0414 34.0732 36.702 33.6025 36.9253 33.0475C37.0942 32.6282 36.5948 32.1259 36.2631 31.9294C35.2215 31.3124 34.6922 33.2914 33.7823 33.2914C33.343 33.2914 32.8663 32.6757 32.606 32.3764C31.8584 31.5181 32.9073 30.8919 33.5109 30.2893C33.6973 30.1034 33.9622 29.8925 33.9246 29.5959C33.8808 29.2504 33.5129 28.9287 33.2576 28.727C33.0401 28.5556 32.8552 28.4937 32.5958 28.4211Z" fill="white"/>
<path d="M37.8694 33.9666C37.1843 34.0562 36.4846 35.0846 36.0237 35.5407C35.1502 36.403 34.0996 37.0622 33.7541 38.3094C33.0173 40.9687 35.4428 42.7143 37.8694 42.1566C39.0552 41.8837 39.9002 40.589 40.7582 39.7992C41.1607 39.4288 41.7321 39.0556 42.0012 38.5718C42.2918 38.0471 41.6533 37.0754 41.0541 37.0754C40.6313 37.0754 40.2458 37.6476 39.9784 37.9139C39.208 38.6786 38.3616 39.5975 37.4739 40.2198C37.1034 40.4782 36.5899 40.6404 36.1628 40.4149C35.5279 40.0801 35.3373 39.1611 35.7076 38.5731C36.4706 37.3615 37.8812 36.6509 38.7703 35.5407C39.2479 34.9448 38.6819 33.8598 37.8694 33.9666Z" fill="white"/>
<path fill-rule="evenodd" clip-rule="evenodd" d="M39.0406 45.8303C38.4875 45.3117 37.9165 44.7763 37.6056 44.1101C38.4854 43.4401 39.2766 42.6435 40.0659 41.8488C40.558 41.3535 41.0493 40.8588 41.5608 40.3961C41.6551 40.3109 41.7622 40.1932 41.8789 40.065C42.2407 39.6675 42.6948 39.1686 43.1429 39.2214C43.5511 39.2694 43.9446 39.714 44.2528 40.0623C44.3257 40.1447 44.3938 40.2216 44.4562 40.2867C44.5397 40.3739 44.6279 40.4628 44.7179 40.5534C45.1134 40.9518 45.5438 41.3854 45.7654 41.8741C46.3575 43.1793 45.7973 45.0448 44.1977 45.1648C44.0565 46.8919 42.5009 48.093 40.7749 47.3863C40.3881 47.2277 40.0993 46.912 39.8177 46.6041C39.739 46.5181 39.6608 46.4326 39.5812 46.3514C39.4101 46.1767 39.2264 46.0045 39.0406 45.8303ZM42.2202 42.5281V42.1326C42.2707 42.101 42.3234 42.0649 42.3781 42.0276C42.6086 41.8699 42.8728 41.6892 43.1434 41.7265C44.3442 41.89 44.3691 43.9744 43.1434 43.2401C42.9557 43.1271 42.784 42.9828 42.6126 42.8388C42.4838 42.7306 42.3552 42.6226 42.2202 42.5281ZM40.5818 44.9013C40.395 44.6468 40.3142 44.4108 40.2426 44.1102C40.289 44.0816 40.3379 44.0485 40.3887 44.0141C40.5834 43.8822 40.8064 43.7311 41.029 43.7384C41.5267 43.7556 42.1825 44.5796 42.2699 45.0331C42.3772 45.5895 41.9097 45.8703 41.4288 45.6857C41.3072 45.6399 41.2006 45.5479 41.1006 45.4615C41.0798 45.4436 41.0592 45.4259 41.0389 45.4088C40.867 45.2651 40.7137 45.0819 40.5818 44.9013Z" fill="white"/>
</svg>
