<svg width="156" height="49" viewBox="0 0 156 49" fill="none" xmlns="http://www.w3.org/2000/svg">
<path d="M8.5262 0.0886461C4.85995 0.571527 1.57328 3.05301 0.532019 6.70033C-0.288832 9.57565 0.112011 12.8497 0.112011 15.8157V32.1766C0.112011 36.1044 -0.6455 40.7206 1.72882 44.1306C3.37228 46.4901 5.74286 48.1204 8.64307 48.4008C10.5948 48.5901 12.642 48.4207 14.6031 48.4207H26.2895H35.288C36.8518 48.4207 38.5306 48.5925 40.0794 48.3704C43.4133 47.8925 46.8895 45.4325 47.9047 42.1101C48.8426 39.04 48.4936 35.7012 48.4936 32.5272V16.1663C48.4936 12.2426 49.2591 7.51312 46.8225 4.12933C45.4178 2.17864 43.1457 0.672376 40.7806 0.199311C39.1914 -0.118558 37.4847 0.0390945 35.8723 0.0390945H17.7584H11.7984C10.7207 0.0390945 9.59574 -0.0521748 8.5262 0.0886461Z" fill="#FBBC05"/>
<path d="M31.4313 39.305C31.2478 38.6938 30.645 38.2626 30.2071 37.815C29.4029 36.9946 28.6137 36.1556 27.8103 35.3317C27.4289 34.9413 27.0582 34.3044 26.5225 34.1186C26.1167 33.9772 25.6425 34.1654 25.2375 34.2285C24.7449 34.3056 24.2144 34.3068 23.7183 34.26C20.9775 33.9994 18.3022 32.6064 16.5913 30.4234C14.4114 27.642 13.3624 24.0894 14.3014 20.6068C15.9436 14.5159 22.8772 10.4753 28.7235 13.7084C31.8294 15.4262 34.1825 18.5407 34.5663 22.1261C34.7007 23.38 34.5989 24.7602 34.2928 25.9826C34.1417 26.5856 33.5319 27.4644 33.645 28.0861C33.7442 28.6319 34.4489 29.1122 34.8158 29.4873C35.647 30.3346 36.4344 31.2192 37.2745 32.0595C37.7118 32.4965 38.1121 32.9652 38.6768 33.2281C39.2081 32.2184 39.8993 31.2426 40.3333 30.1897C41.9328 26.3063 42.1493 21.925 40.872 17.919C38.9532 11.9014 33.3369 7.16632 27.1073 6.1537C22.6234 5.42482 17.8962 6.59555 14.1689 9.13454C8.29517 13.1357 5.48998 21.1526 7.44873 27.9692C8.65955 32.1833 11.4798 35.9499 15.1918 38.2743C19.2453 40.8126 24.0453 41.1129 28.6265 40.2283C29.5999 40.0413 30.4761 39.5119 31.4313 39.305Z" fill="#2366EB"/>
<path d="M91.032 12.1928V36.5004H96.174V26.8008H105.757V36.5004H110.899V12.1928H105.757V21.8925H96.174V12.1928H91.032Z" fill="#2366EB"/>
<path fill-rule="evenodd" clip-rule="evenodd" d="M85.4432 33.6971C85.9635 34.1492 86.487 34.604 87.0586 34.9815C86.6808 35.8056 85.9728 36.5536 85.3032 37.2611C85.0593 37.5189 84.8204 37.7713 84.6044 38.02C84.5663 38.0638 84.5266 38.1129 84.485 38.1643C84.2458 38.4596 83.9459 38.8299 83.5527 38.7025C83.283 38.6147 83.0329 38.3839 82.8078 38.1762C82.7423 38.1158 82.6789 38.0573 82.6178 38.0048L80.9817 36.6024C80.9247 36.5535 80.8664 36.5 80.8066 36.4452C80.4912 36.1559 80.1333 35.8277 79.6962 35.9083C79.2147 35.9975 78.744 36.1866 78.2724 36.3762C77.8546 36.5441 77.4359 36.7123 77.0083 36.8116C74.8907 37.3048 72.8047 37.2429 70.6977 36.7345C68.7752 36.2717 66.9088 35.2223 65.4388 33.9099C64.0878 32.7039 63.0596 31.2477 62.3105 29.6058C61.6244 28.1018 61.2317 26.4668 61.2317 24.8144C61.2317 21.5422 62.0925 18.6183 64.2075 16.0496C68.1489 11.2617 75.3967 10.2076 80.6311 13.3851C81.996 14.2149 83.2804 15.3379 84.22 16.6339C86.528 19.8208 87.4723 23.9005 86.3831 27.736C86.0758 28.817 85.6562 29.933 85.0649 30.8913C84.9998 30.9967 84.903 31.1212 84.798 31.2563C84.5162 31.6189 84.1747 32.0581 84.2258 32.4105C84.2704 32.7219 84.5767 32.9693 84.8277 33.1721C84.8725 33.2083 84.9156 33.243 84.955 33.2765C85.1184 33.4148 85.2806 33.5558 85.4432 33.6971ZM74.1536 30.6919C74.7072 31.1289 75.2935 31.5918 75.6059 32.1773C75.4361 32.1906 75.2667 32.2061 75.0975 32.2217C74.4506 32.281 73.8067 32.34 73.1518 32.2743C71.2422 32.0838 69.4904 30.9409 68.2821 29.4894C64.7058 25.197 66.766 18.1186 72.2169 16.6251C77.3519 15.218 82.2005 20.2361 81.4807 25.2823C81.2983 26.5596 80.9583 28.1466 79.9299 29.022C79.3883 28.5492 78.8363 28.0879 78.2842 27.6266C77.4579 26.936 76.6313 26.2454 75.8396 25.516C75.4095 26.2042 74.8588 26.8251 74.313 27.4404C74.0877 27.6944 73.8632 27.9475 73.6484 28.2039C73.594 28.269 73.5217 28.3431 73.4432 28.4237C73.1746 28.6994 72.8323 29.0507 72.8748 29.3725C72.9152 29.6791 73.2359 29.9417 73.4882 30.1482C73.5349 30.1865 73.5794 30.2228 73.6192 30.2572C73.786 30.4016 73.9679 30.5453 74.1536 30.6919Z" fill="#2366EB"/>
<path d="M114.755 18.854V27.0345C114.755 28.9919 114.636 30.9085 115.392 32.7608C116.604 35.7245 120.1 37.8081 123.286 37.0567C124.778 36.7061 125.964 35.8086 127.026 34.7475V36.5004H132.168V18.854H127.026V26.2164C127.026 27.5183 127.219 28.9662 126.69 30.1898C125.508 32.9186 121.957 33.1032 120.477 30.5404C119.811 29.3869 120.014 27.9624 120.014 26.6839V18.854H114.755Z" fill="#2366EB"/>
<path fill-rule="evenodd" clip-rule="evenodd" d="M136.141 36.5004V12.1928H141.283V20.1395C142.776 19.0714 144.433 18.2007 146.309 18.154C147.966 18.1143 149.657 18.4964 151.1 19.3215C152.486 20.1126 153.634 21.1317 154.505 22.4768C156.635 25.7642 156.465 30.198 154.148 33.3451C151.155 37.4073 145.182 38.4217 141.283 35.0981V36.5004H136.141ZM142.374 30.8867C140.124 28.3087 141.283 23.7545 144.789 23.0054C146.968 22.5391 149.225 23.5185 150.239 25.5157C151.537 28.0773 150.163 31.6346 147.243 32.2797C145.487 32.6677 143.595 32.2867 142.374 30.8867Z" fill="#2366EB"/>
<path d="M28.6266 24.9312C27.7856 26.1221 26.4257 27.1949 25.3544 28.1929C24.9964 28.5259 24.2399 28.956 24.1766 29.4889C24.1268 29.9096 24.6652 30.3408 24.887 30.6575C25.4392 30.5021 25.7659 30.1141 26.1725 29.725C26.3841 29.5216 26.6606 29.1897 26.9905 29.2283C27.3888 29.275 27.7532 29.7822 28.0067 30.0533C28.2225 30.2847 28.3789 30.4893 28.5098 30.7744C27.9988 31.0128 27.6241 31.4137 27.2312 31.8157C27.0525 31.998 26.7708 32.2282 26.8447 32.518C26.9423 32.9013 27.4625 33.2566 27.6917 33.5791C28.347 33.2741 28.821 32.6828 29.3278 32.1768C29.9724 31.5328 30.6699 30.9509 31.3145 30.3069C31.6809 29.9412 32.2663 29.524 32.4643 29.032C32.614 28.6603 32.1713 28.2151 31.8773 28.041C30.9541 27.494 30.4849 29.2482 29.6784 29.2482C29.289 29.2482 28.8664 28.7024 28.6357 28.4371C27.973 27.6763 28.9028 27.1212 29.4378 26.5872C29.603 26.4224 29.8378 26.2354 29.8045 25.9725C29.7657 25.6663 29.4395 25.3811 29.2133 25.2023C29.0205 25.0504 28.8566 24.9955 28.6266 24.9312Z" fill="#2366EB"/>
<path d="M33.3015 29.8465C32.6941 29.926 32.0739 30.8375 31.6654 31.2418C30.8912 32.0061 29.9599 32.5905 29.6537 33.696C29.0005 36.0531 31.1505 37.6004 33.3015 37.1061C34.3525 36.8642 35.1015 35.7166 35.8621 35.0166C36.2189 34.6882 36.7253 34.3574 36.9639 33.9285C37.2214 33.4634 36.6555 32.6021 36.1243 32.6021C35.7495 32.6021 35.4078 33.1093 35.1708 33.3454C34.488 34.0232 33.7377 34.8377 32.9509 35.3893C32.6225 35.6184 32.1673 35.7621 31.7887 35.5623C31.226 35.2655 31.057 34.4509 31.3853 33.9297C32.0615 32.8557 33.3119 32.2258 34.1 31.2418C34.5233 30.7136 34.0216 29.7518 33.3015 29.8465Z" fill="#2366EB"/>
<path fill-rule="evenodd" clip-rule="evenodd" d="M34.3394 40.3625C33.8491 39.9028 33.343 39.4282 33.0674 38.8377C33.8472 38.2438 34.5486 37.5377 35.2482 36.8334C35.6844 36.3943 36.1199 35.9558 36.5733 35.5457C36.6568 35.4701 36.7517 35.3658 36.8552 35.2522C37.1759 34.8998 37.5785 34.4576 37.9757 34.5044C38.3375 34.5469 38.6863 34.9411 38.9595 35.2498C39.0241 35.3228 39.0844 35.391 39.1397 35.4487C39.2138 35.526 39.2919 35.6047 39.3717 35.6851C39.7223 36.0382 40.1038 36.4225 40.3002 36.8557C40.825 38.0127 40.3285 39.6663 38.9106 39.7726C38.7854 41.3035 37.4065 42.3682 35.8767 41.7418C35.5338 41.6011 35.2778 41.3213 35.0282 41.0484C34.9584 40.9721 34.8891 40.8964 34.8186 40.8244C34.6669 40.6696 34.504 40.5169 34.3394 40.3625ZM37.1578 37.4354V37.0848C37.2025 37.0569 37.2493 37.0249 37.2977 36.9918C37.5021 36.852 37.7363 36.6918 37.9761 36.7249C39.0405 36.8698 39.0626 38.7174 37.9761 38.0665C37.8097 37.9664 37.6575 37.8385 37.5056 37.7108C37.3914 37.6149 37.2775 37.5192 37.1578 37.4354ZM35.7055 39.539C35.5399 39.3134 35.4683 39.1043 35.4048 38.8378C35.446 38.8124 35.4893 38.7831 35.5343 38.7526C35.7069 38.6357 35.9046 38.5018 36.1019 38.5083C36.5431 38.5234 37.1244 39.2538 37.2019 39.6558C37.297 40.149 36.8826 40.3979 36.4563 40.2343C36.3485 40.1937 36.2541 40.1122 36.1653 40.0356C36.1469 40.0197 36.1287 40.004 36.1107 39.9889C35.9583 39.8615 35.8224 39.6991 35.7055 39.539Z" fill="#2366EB"/>
</svg>
