<svg width="12" height="12" viewBox="0 0 12 12" fill="none" xmlns="http://www.w3.org/2000/svg">
<path d="M6 1C5.01109 1 4.0444 1.29324 3.22215 1.84265C2.3999 2.39206 1.75904 3.17295 1.3806 4.08658C1.00217 5.00021 0.90315 6.00555 1.09608 6.97545C1.289 7.94536 1.76521 8.83627 2.46447 9.53553C3.16373 10.2348 4.05465 10.711 5.02455 10.9039C5.99445 11.0969 6.99979 10.9978 7.91342 10.6194C8.82705 10.241 9.60794 9.60009 10.1573 8.77785C10.7068 7.9556 11 6.98891 11 6C10.9986 4.67435 10.4714 3.40339 9.53399 2.46601C8.59661 1.52863 7.32565 1.0014 6 1ZM8.69231 6.38461H6C5.89799 6.38461 5.80017 6.34409 5.72804 6.27196C5.65591 6.19983 5.61539 6.10201 5.61539 6V3.30769C5.61539 3.20569 5.65591 3.10786 5.72804 3.03573C5.80017 2.9636 5.89799 2.92308 6 2.92308C6.10201 2.92308 6.19984 2.9636 6.27197 3.03573C6.34409 3.10786 6.38462 3.20569 6.38462 3.30769V5.61538H8.69231C8.79431 5.61538 8.89214 5.65591 8.96427 5.72803C9.0364 5.80016 9.07692 5.89799 9.07692 6C9.07692 6.10201 9.0364 6.19983 8.96427 6.27196C8.89214 6.34409 8.79431 6.38461 8.69231 6.38461Z" fill="#2366EB"/>
</svg>
