<svg width="10" height="10" viewBox="0 0 10 10" fill="none" xmlns="http://www.w3.org/2000/svg">
<g clip-path="url(#clip0_7215_13698)">
<path d="M7.36362 2.33582C6.57563 1.96517 5.78799 1.59378 5.00071 1.22165L0.057373 3.55165L0.903206 3.95998L0.833206 3.97123V8.33332H1.24987V4.32248L1.54987 4.27082L1.66654 4.32707V6.5304C1.66654 6.91123 3.83571 8.00248 4.27029 8.21748C4.49623 8.32838 4.74489 8.38514 4.99657 8.38326C5.24825 8.38138 5.49603 8.32091 5.72029 8.20665C8.33321 6.86915 8.33321 6.6229 8.33321 6.5304V4.32707L9.93904 3.55332C9.93904 3.55332 8.35571 2.8029 7.36362 2.33582ZM7.91654 6.45998C7.15153 6.96918 6.35461 7.42874 5.53071 7.83582C5.36436 7.92071 5.18052 7.96566 4.99377 7.96711C4.80703 7.96856 4.62251 7.92645 4.45487 7.84415C3.62799 7.45075 2.83478 6.99017 2.08321 6.46707V4.52748L4.99987 5.9329L7.91654 4.52748V6.45998ZM4.99987 5.47123L2.25654 4.14915L4.95196 3.68457L4.88112 3.27332L1.61029 3.83748L1.02571 3.55582L4.99946 1.6829C5.34321 1.84665 8.55071 3.3554 8.97529 3.5554L4.99987 5.47123Z" fill="#2366EB" stroke="#2366EB" stroke-width="0.5"/>
</g>
<defs>
<clipPath id="clip0_7215_13698">
<rect width="10" height="10" fill="white"/>
</clipPath>
</defs>
</svg>
