<svg width="29" height="30" viewBox="0 0 29 30" fill="none" xmlns="http://www.w3.org/2000/svg">
<g clip-path="url(#clip0_6473_64)">
<path d="M21.3549 7.00748C19.0697 5.89554 16.7856 4.78137 14.5024 3.66498L0.166748 10.655L2.61966 11.88L2.41666 11.9137V25H3.625V12.9675L4.495 12.8125L4.83333 12.9812V19.5912C4.83333 20.7337 11.1239 24.0075 12.3842 24.6525C13.0394 24.9852 13.7605 25.1554 14.4904 25.1498C15.2203 25.1442 15.9389 24.9628 16.5892 24.62C24.1667 20.6075 24.1667 19.8687 24.1667 19.5912V12.9812L28.8236 10.66C28.8236 10.66 24.2319 8.40873 21.3549 7.00748ZM22.9583 19.38C20.7398 20.9076 18.4287 22.2862 16.0394 23.5075C15.557 23.7622 15.0239 23.897 14.4823 23.9014C13.9407 23.9057 13.4057 23.7794 12.9195 23.5325C10.5215 22.3523 8.22121 20.9706 6.04166 19.4012V13.5825L14.5 17.7987L22.9583 13.5825V19.38ZM14.5 16.4137L6.54433 12.4475L14.361 11.0537L14.1556 9.81998L4.67021 11.5125L2.97491 10.6675L14.4988 5.04873C15.4957 5.53998 24.7974 10.0662 26.0287 10.6662L14.5 16.4137Z" fill="black" stroke="black" stroke-width="0.5"/>
</g>
<defs>
<clipPath id="clip0_6473_64">
<rect width="29" height="30" fill="white"/>
</clipPath>
</defs>
</svg>
