<svg width="17" height="17" viewBox="0 0 17 17" fill="none" xmlns="http://www.w3.org/2000/svg">
<path d="M11.9799 1.25049H4.7193C2.71433 1.25049 1.08899 2.87346 1.08899 4.87549V12.1255C1.08899 14.1275 2.71433 15.7505 4.7193 15.7505H11.9799C13.9849 15.7505 15.6102 14.1275 15.6102 12.1255V4.87549C15.6102 2.87346 13.9849 1.25049 11.9799 1.25049Z" stroke="#111111" stroke-width="1.5" stroke-linecap="round" stroke-linejoin="round"/>
<path d="M11.2541 8.04347C11.3437 8.64685 11.2405 9.26308 10.9591 9.8045C10.6778 10.3459 10.2326 10.785 9.68696 11.0592C9.14131 11.3335 8.52295 11.4289 7.91984 11.332C7.31673 11.2351 6.75958 10.9508 6.32763 10.5195C5.89568 10.0881 5.61093 9.5318 5.51388 8.92957C5.41683 8.32734 5.51242 7.70989 5.78707 7.16504C6.06171 6.62019 6.50141 6.17568 7.04363 5.89474C7.58585 5.61381 8.20298 5.51075 8.80725 5.60022C9.42362 5.69148 9.99425 5.97828 10.4349 6.41824C10.8755 6.8582 11.1627 7.428 11.2541 8.04347Z" stroke="#111111" stroke-width="1.5" stroke-linecap="round" stroke-linejoin="round"/>
<path d="M12.3429 4.5127H12.3515" stroke="#111111" stroke-width="1.5" stroke-linecap="round" stroke-linejoin="round"/>
</svg>
