<svg width="17" height="17" viewBox="0 0 17 17" fill="none" xmlns="http://www.w3.org/2000/svg">
<path d="M11.5378 6.05078C12.7466 6.05078 13.9058 6.53025 14.7605 7.38371C15.6152 8.23717 16.0954 9.3947 16.0954 10.6017V15.9111H13.057V10.6017C13.057 10.1994 12.897 9.81351 12.6121 9.52902C12.3272 9.24453 11.9408 9.08471 11.5378 9.08471C11.1349 9.08471 10.7485 9.24453 10.4636 9.52902C10.1787 9.81351 10.0187 10.1994 10.0187 10.6017V15.9111H6.98029V10.6017C6.98029 9.3947 7.46046 8.23717 8.31516 7.38371C9.16987 6.53025 10.3291 6.05078 11.5378 6.05078V6.05078Z" stroke="black" stroke-width="1.5" stroke-linecap="round" stroke-linejoin="round"/>
<path d="M3.94182 6.80957H0.903442V15.9114H3.94182V6.80957Z" stroke="black" stroke-width="1.5" stroke-linecap="round" stroke-linejoin="round"/>
<path d="M2.42263 4.53393C3.26165 4.53393 3.94182 3.85476 3.94182 3.01697C3.94182 2.17917 3.26165 1.5 2.42263 1.5C1.58361 1.5 0.903442 2.17917 0.903442 3.01697C0.903442 3.85476 1.58361 4.53393 2.42263 4.53393Z" stroke="black" stroke-width="1.5" stroke-linecap="round" stroke-linejoin="round"/>
</svg>
