<svg width="24" height="24" viewBox="0 0 24 24" fill="none" xmlns="http://www.w3.org/2000/svg">
<path d="M21.3259 19.1376C21.2407 18.7152 20.84 18.4441 20.4306 18.532C20.0214 18.6199 19.7588 19.0337 19.844 19.4561C19.8931 19.6994 19.8346 19.9487 19.6837 20.1404C19.5963 20.2514 19.4013 20.4375 19.0783 20.4375H4.29672C3.97362 20.4375 3.7787 20.2513 3.69129 20.1404C3.54034 19.9488 3.48191 19.6994 3.53099 19.4561C4.31643 15.5617 7.64405 12.717 11.4868 12.621C11.5534 12.6237 11.6203 12.625 11.6875 12.625C11.7549 12.625 11.8221 12.6236 11.8889 12.621C14.5958 12.688 17.0977 14.1033 18.6129 16.4358C18.8456 16.7942 19.3158 16.8899 19.663 16.6496C20.0101 16.4094 20.1029 15.9241 19.8701 15.5657C18.6282 13.6538 16.825 12.2636 14.7689 11.565C16.0218 10.5952 16.834 9.04988 16.834 7.3125C16.834 4.3832 14.5253 2 11.6875 2C8.84969 2 6.541 4.3832 6.541 7.3125C6.541 9.05094 7.35415 10.597 8.60841 11.5668C7.45923 11.9574 6.38093 12.5651 5.43716 13.3664C3.70658 14.8358 2.50332 16.8854 2.0491 19.1376C1.90674 19.8433 2.0773 20.5682 2.51694 21.1262C2.95443 21.6815 3.60315 22 4.29672 22H19.0782C19.7718 22 20.4205 21.6815 20.858 21.1262C21.2977 20.5682 21.4682 19.8433 21.3259 19.1376ZM8.05467 7.3125C8.05467 5.24473 9.68433 3.5625 11.6875 3.5625C13.6906 3.5625 15.3203 5.24473 15.3203 7.3125C15.3203 9.3166 13.7894 10.9586 11.8714 11.0577C11.8102 11.0566 11.7489 11.056 11.6875 11.056C11.6264 11.056 11.5653 11.0566 11.5043 11.0578C9.58594 10.959 8.05467 9.31687 8.05467 7.3125Z" fill="black" stroke="black" stroke-width="0.5"/>
</svg>
