<svg width="19" height="19" viewBox="0 0 19 19" fill="none" xmlns="http://www.w3.org/2000/svg">
<g clip-path="url(#clip0_6607_1989)">
<path d="M12.8201 4.98716C12.7388 5.42869 13.0215 5.83149 13.463 5.91283L17.4136 6.59837C17.8823 6.67195 18.1921 6.34274 18.3005 5.91283L18.9861 1.96226C19.0674 1.52073 18.7847 1.11793 18.3432 1.03659C17.9016 0.955257 17.4988 1.23799 17.4175 1.67953L17.0689 3.79811C15.2989 1.44714 12.5025 0.0102208 9.48537 0.00634766C3.80353 0.00634766 0.0388735 4.51076 0.000142523 9.49157C-0.019223 12.0246 1.92895 18.512 9.48149 18.9729C17.0418 19.4338 18.9628 12.0246 18.9628 9.49157C18.9628 9.05391 18.6065 8.69759 18.1689 8.69759C17.7312 8.69759 17.3749 9.05391 17.3749 9.49157C17.3749 13.8449 13.8349 17.385 9.48149 17.385C5.12813 17.385 1.58811 13.8449 1.58811 9.49157C1.58811 5.13821 5.12813 1.59819 9.48149 1.59819C11.9564 1.59819 14.257 2.764 15.7327 4.66956L13.7497 4.34035C13.3042 4.25901 12.9014 4.54175 12.8201 4.98716Z" fill="#2366EB"/>
</g>
<defs>
<clipPath id="clip0_6607_1989">
<rect width="19" height="19" fill="white"/>
</clipPath>
</defs>
</svg>
