<svg width="63" height="58" viewBox="0 0 63 58" fill="none" xmlns="http://www.w3.org/2000/svg">
<g clip-path="url(#clip0_6605_715)">
<path d="M48.5995 21.1785C47.7456 19.093 45.3423 17.9654 43.0613 18.4899L38.7756 8.0225C38.5132 7.38161 37.8422 6.9966 37.106 7.06456C36.37 7.13262 35.7941 7.63248 35.6734 8.30861C34.8442 12.9514 32.1496 16.8726 27.6646 19.9634C24.2732 22.3005 21.0768 23.2577 21.0458 23.2667C20.9988 23.2804 20.9539 23.2985 20.9103 23.3187L12.8723 26.1433C8.83432 27.5622 6.79525 31.7602 8.32688 35.5011C9.76953 39.0246 13.8731 40.9041 17.7193 39.9251L23.9253 48.3092C24.747 49.4193 26.2697 49.8612 27.6282 49.3838L29.3108 48.7925C30.2174 48.474 30.9036 47.7996 31.1935 46.9424C31.4833 46.0852 31.335 45.1687 30.7867 44.4278L25.4655 37.2389L26.4642 36.8879C26.5115 36.8762 26.5583 36.8621 26.6037 36.8434C26.6341 36.8308 29.7115 35.5832 33.9229 35.2487C39.4921 34.8063 44.3159 36.0856 48.2601 39.0509C48.7188 39.3958 49.314 39.4783 49.8405 39.2933C49.9735 39.2465 50.102 39.1827 50.223 39.1018C50.8227 38.7003 51.0493 38 50.7869 37.3591L46.5011 26.8915C48.5839 25.8827 49.5754 23.5621 48.7215 21.4766L48.5995 21.1785ZM28.5351 44.4525L29.2428 45.4086C29.4643 45.7078 29.5243 46.0779 29.4071 46.4241C29.2902 46.7702 29.0131 47.0425 28.647 47.1711L26.9643 47.7624C26.4157 47.9552 25.8009 47.7767 25.4691 47.3285L19.5417 39.3206L23.6642 37.8719L25.2465 40.0095L24.8282 40.1565C24.3448 40.3264 24.1017 40.827 24.285 41.2748C24.4683 41.7226 25.0087 41.9478 25.492 41.778L26.3359 41.4815L27.4456 42.9806L27.1713 43.077C26.688 43.2468 26.4448 43.7475 26.6282 44.1952C26.8115 44.643 27.3519 44.8683 27.8352 44.6984L28.5351 44.4525ZM23.6056 32.1023L18.1672 34.0134C17.6838 34.1833 17.4407 34.6839 17.624 35.1317C17.8073 35.5795 18.3477 35.8048 18.831 35.6349L24.2695 33.7238L25.0143 35.5428L23.7358 35.992C23.7195 35.9969 23.7031 36.0014 23.6868 36.0071L17.7631 38.0888C17.7548 38.0917 17.747 38.0957 17.7388 38.0988C14.6722 39.162 11.2395 37.7252 10.0771 34.886C8.91154 32.0392 10.4633 28.8446 13.5361 27.7647L20.7866 25.2169L23.6056 32.1023ZM41.6305 19.8856L44.4312 26.7261L48.7122 37.1821C44.5426 34.3252 39.3723 33.0625 33.6975 33.5262C30.5554 33.7829 28.0429 34.4966 26.7631 34.9243L25.6878 32.298L22.5382 24.6053C23.8024 24.139 26.1938 23.1293 28.729 21.3911C33.3082 18.2514 36.274 14.1297 37.3495 9.42961L41.6305 19.8856ZM46.9711 22.0917C47.4582 23.2813 46.9497 24.5984 45.8295 25.2517L43.7325 20.13C45.0385 19.9307 46.362 20.604 46.8491 21.7936L46.9711 22.0917Z" fill="#2366EB"/>
<path d="M46.9858 16.5055C47.1961 16.4316 47.3785 16.2876 47.4882 16.0872L49.1404 13.0706C49.3743 12.6435 49.1903 12.1217 48.7292 11.905C48.2682 11.6883 47.705 11.8589 47.471 12.2859L45.8189 15.3024C45.5851 15.7295 45.7691 16.2513 46.2301 16.4681C46.4748 16.583 46.7481 16.589 46.9858 16.5055Z" fill="#2366EB"/>
<path d="M51.5346 25.9701C51.0537 25.7943 50.5101 26.0127 50.3202 26.4581C50.1303 26.9035 50.3661 27.4072 50.8469 27.5831L54.2428 28.8257C54.4686 28.9083 54.7081 28.904 54.9184 28.8301C55.156 28.7466 55.3564 28.5741 55.4572 28.3378C55.6471 27.8924 55.4112 27.3887 54.9305 27.2128L51.5346 25.9701Z" fill="#2366EB"/>
<path d="M51.9253 19.2531L49.9872 19.9342C49.5039 20.104 49.2607 20.6047 49.444 21.0524C49.6273 21.5002 50.1677 21.7255 50.6511 21.5556L52.5892 20.8746C53.0725 20.7047 53.3157 20.2041 53.1324 19.7563C52.9491 19.3085 52.4087 19.0833 51.9253 19.2531Z" fill="#2366EB"/>
<path d="M15.5747 35.4973C15.5325 35.4556 15.4862 35.4181 15.4367 35.3854C15.3861 35.3522 15.3333 35.3234 15.2778 35.3003C15.2214 35.2774 15.1628 35.2591 15.1027 35.2468C15.0435 35.2342 14.9825 35.2269 14.9216 35.2251C14.86 35.2236 14.7985 35.2276 14.7391 35.2364C14.6176 35.255 14.5012 35.2959 14.3969 35.3566C14.3452 35.3869 14.2964 35.4216 14.2522 35.4604C14.208 35.4991 14.1666 35.5423 14.1313 35.5881C14.0952 35.6342 14.0645 35.684 14.0395 35.7354C14.0145 35.7869 13.9947 35.8411 13.9814 35.8968C13.9678 35.9516 13.96 36.0082 13.9583 36.0653C13.9564 36.1217 13.9607 36.1786 13.9705 36.2345C13.9804 36.2903 13.9962 36.346 14.0177 36.3987C14.0393 36.4514 14.0674 36.5028 14.1003 36.5515C14.1326 36.5985 14.1701 36.6438 14.2123 36.6855C14.2541 36.7265 14.3004 36.764 14.3499 36.7967C14.3996 36.8302 14.4533 36.8586 14.5088 36.8818C14.5644 36.9049 14.6229 36.9233 14.6833 36.9364C14.7425 36.949 14.8045 36.956 14.8653 36.9578C14.9261 36.9596 14.9875 36.9556 15.0478 36.9465C15.109 36.937 15.1679 36.9219 15.2248 36.9019C15.2826 36.8816 15.3374 36.8568 15.39 36.8262C15.4417 36.796 15.4897 36.7615 15.5347 36.7225C15.5789 36.6838 15.6194 36.6408 15.6547 36.595C15.6906 36.5481 15.7213 36.4984 15.7471 36.4466C15.7721 36.3952 15.7911 36.3413 15.8052 36.2853C15.8188 36.2304 15.8266 36.1739 15.8286 36.1175C15.8302 36.0604 15.8259 36.0035 15.8164 35.9484C15.8062 35.8917 15.7895 35.8364 15.768 35.7837C15.7464 35.731 15.7192 35.6793 15.6866 35.6314C15.654 35.5835 15.6165 35.5383 15.5747 35.4973Z" fill="#2366EB"/>
</g>
<defs>
<clipPath id="clip0_6605_715">
<rect width="47.4918" height="44.8542" fill="white" transform="matrix(0.943444 -0.331533 0.378901 0.925437 0.238281 15.7451)"/>
</clipPath>
</defs>
</svg>
