<svg width="17" height="14" viewBox="0 0 17 14" fill="none" xmlns="http://www.w3.org/2000/svg">
<path d="M16.514 0.224576C15.8187 0.714297 15.0489 1.08885 14.2342 1.33383C13.7969 0.831771 13.2158 0.475927 12.5693 0.314422C11.9229 0.152917 11.2424 0.193542 10.6199 0.430804C9.99736 0.668066 9.46282 1.09052 9.08856 1.64102C8.7143 2.19152 8.5184 2.84352 8.52733 3.50883V4.23383C7.25137 4.26686 5.98704 3.98429 4.84693 3.41127C3.70682 2.83826 2.72633 1.99259 1.99277 0.949576C1.99277 0.949576 -0.911474 7.47458 5.62308 10.3746C4.12778 11.3881 2.34648 11.8963 0.540649 11.8246C7.0752 15.4496 15.0619 11.8246 15.0619 3.48708C15.0612 3.28513 15.0418 3.08368 15.0038 2.88533C15.7448 2.15561 16.2677 1.23429 16.514 0.224576Z" fill="#111111"/>
</svg>
